{
    "asset": {
        "copyright": "2023 (c) Adobe Inc.",
        "generator": "Adobe Substance 3D Stager - a24c93045837040728de7b49c25565d21a4c92de",
        "version": "2.0"
    },
    "accessors": [
        {
            "bufferView": 0,
            "componentType": 5126,
            "count": 126,
            "type": "VEC3",
            "max": [
                0.326565682888031,
                0.41679179668426516,
                -0.12757983803749085
            ],
            "min": [
                0.15025968849658967,
                -1.907348590179936e-8,
                -0.31086546182632449
            ]
        },
        {
            "bufferView": 1,
            "componentType": 5126,
            "count": 126,
            "type": "VEC3"
        },
        {
            "bufferView": 2,
            "componentType": 5126,
            "count": 126,
            "type": "VEC4"
        },
        {
            "bufferView": 3,
            "componentType": 5126,
            "count": 126,
            "type": "VEC2"
        },
        {
            "bufferView": 4,
            "componentType": 5125,
            "count": 564,
            "type": "SCALAR",
            "max": [
                125.0
            ],
            "min": [
                0.0
            ]
        },
        {
            "bufferView": 5,
            "componentType": 5126,
            "count": 126,
            "type": "VEC3",
            "max": [
                -0.15025968849658967,
                0.41679179668426516,
                -0.12757983803749085
            ],
            "min": [
                -0.326565682888031,
                -1.907348590179936e-8,
                -0.31086546182632449
            ]
        },
        {
            "bufferView": 6,
            "componentType": 5126,
            "count": 126,
            "type": "VEC3"
        },
        {
            "bufferView": 7,
            "componentType": 5126,
            "count": 126,
            "type": "VEC4"
        },
        {
            "bufferView": 8,
            "componentType": 5126,
            "count": 126,
            "type": "VEC2"
        },
        {
            "bufferView": 9,
            "componentType": 5125,
            "count": 564,
            "type": "SCALAR",
            "max": [
                125.0
            ],
            "min": [
                0.0
            ]
        },
        {
            "bufferView": 10,
            "componentType": 5126,
            "count": 126,
            "type": "VEC3",
            "max": [
                0.3436502516269684,
                0.4167918264865875,
                0.31357860565185549
            ],
            "min": [
                0.16734425723552705,
                0.0,
                0.12043113261461258
            ]
        },
        {
            "bufferView": 11,
            "componentType": 5126,
            "count": 126,
            "type": "VEC3"
        },
        {
            "bufferView": 12,
            "componentType": 5126,
            "count": 126,
            "type": "VEC4"
        },
        {
            "bufferView": 13,
            "componentType": 5126,
            "count": 126,
            "type": "VEC2"
        },
        {
            "bufferView": 14,
            "componentType": 5125,
            "count": 564,
            "type": "SCALAR",
            "max": [
                125.0
            ],
            "min": [
                0.0
            ]
        },
        {
            "bufferView": 15,
            "componentType": 5126,
            "count": 126,
            "type": "VEC3",
            "max": [
                -0.16734424233436585,
                0.4167918264865875,
                0.31357863545417788
            ],
            "min": [
                -0.3436501920223236,
                0.0,
                0.12043113261461258
            ]
        },
        {
            "bufferView": 16,
            "componentType": 5126,
            "count": 126,
            "type": "VEC3"
        },
        {
            "bufferView": 17,
            "componentType": 5126,
            "count": 126,
            "type": "VEC4"
        },
        {
            "bufferView": 18,
            "componentType": 5126,
            "count": 126,
            "type": "VEC2"
        },
        {
            "bufferView": 19,
            "componentType": 5125,
            "count": 564,
            "type": "SCALAR",
            "max": [
                125.0
            ],
            "min": [
                0.0
            ]
        },
        {
            "bufferView": 20,
            "componentType": 5126,
            "count": 1803,
            "type": "VEC3",
            "max": [
                0.408988356590271,
                1.142325758934021,
                0.3276940882205963
            ],
            "min": [
                -0.41185426712036135,
                0.4146232008934021,
                -0.44819822907447817
            ]
        },
        {
            "bufferView": 21,
            "componentType": 5126,
            "count": 1803,
            "type": "VEC3"
        },
        {
            "bufferView": 22,
            "componentType": 5126,
            "count": 1803,
            "type": "VEC4"
        },
        {
            "bufferView": 23,
            "componentType": 5126,
            "count": 1803,
            "type": "VEC2"
        },
        {
            "bufferView": 24,
            "componentType": 5125,
            "count": 10008,
            "type": "SCALAR",
            "max": [
                1802.0
            ],
            "min": [
                0.0
            ]
        }
    ],
    "bufferViews": [
        {
            "buffer": 0,
            "byteOffset": 0,
            "byteLength": 1512,
            "target": 34962
        },
        {
            "buffer": 0,
            "byteOffset": 1512,
            "byteLength": 1512,
            "target": 34962
        },
        {
            "buffer": 0,
            "byteOffset": 3024,
            "byteLength": 2016,
            "target": 34962
        },
        {
            "buffer": 0,
            "byteOffset": 5040,
            "byteLength": 1008,
            "target": 34962
        },
        {
            "buffer": 0,
            "byteOffset": 6048,
            "byteLength": 2256,
            "target": 34963
        },
        {
            "buffer": 0,
            "byteOffset": 8304,
            "byteLength": 1512,
            "target": 34962
        },
        {
            "buffer": 0,
            "byteOffset": 9816,
            "byteLength": 1512,
            "target": 34962
        },
        {
            "buffer": 0,
            "byteOffset": 11328,
            "byteLength": 2016,
            "target": 34962
        },
        {
            "buffer": 0,
            "byteOffset": 13344,
            "byteLength": 1008,
            "target": 34962
        },
        {
            "buffer": 0,
            "byteOffset": 14352,
            "byteLength": 2256,
            "target": 34963
        },
        {
            "buffer": 0,
            "byteOffset": 16608,
            "byteLength": 1512,
            "target": 34962
        },
        {
            "buffer": 0,
            "byteOffset": 18120,
            "byteLength": 1512,
            "target": 34962
        },
        {
            "buffer": 0,
            "byteOffset": 19632,
            "byteLength": 2016,
            "target": 34962
        },
        {
            "buffer": 0,
            "byteOffset": 21648,
            "byteLength": 1008,
            "target": 34962
        },
        {
            "buffer": 0,
            "byteOffset": 22656,
            "byteLength": 2256,
            "target": 34963
        },
        {
            "buffer": 0,
            "byteOffset": 24912,
            "byteLength": 1512,
            "target": 34962
        },
        {
            "buffer": 0,
            "byteOffset": 26424,
            "byteLength": 1512,
            "target": 34962
        },
        {
            "buffer": 0,
            "byteOffset": 27936,
            "byteLength": 2016,
            "target": 34962
        },
        {
            "buffer": 0,
            "byteOffset": 29952,
            "byteLength": 1008,
            "target": 34962
        },
        {
            "buffer": 0,
            "byteOffset": 30960,
            "byteLength": 2256,
            "target": 34963
        },
        {
            "buffer": 0,
            "byteOffset": 33216,
            "byteLength": 21636,
            "target": 34962
        },
        {
            "buffer": 0,
            "byteOffset": 54852,
            "byteLength": 21636,
            "target": 34962
        },
        {
            "buffer": 0,
            "byteOffset": 76488,
            "byteLength": 28848,
            "target": 34962
        },
        {
            "buffer": 0,
            "byteOffset": 105336,
            "byteLength": 14424,
            "target": 34962
        },
        {
            "buffer": 0,
            "byteOffset": 119760,
            "byteLength": 40032,
            "target": 34963
        }
    ],
    "buffers": [
        {
            "byteLength": 159792,
            "uri": "chair_1_binary.bin"
        }
    ],
    "cameras": [
        {
            "perspective": {
                "znear": 0.000010000000656873454,
                "yfov": 0.3995896875858307,
                "zfar": 2.0,
                "aspectRatio": 1.7777777910232545
            },
            "type": "perspective",
            "name": "working_cam"
        }
    ],
    "images": [
        {
            "name": "base_color_image_texture",
            "uri": "chair_1_images/base_color_image_texture.jpg",
            "mimeType": "image/jpeg"
        },
        {
            "name": "ambient_occlusion_image_texture",
            "uri": "chair_1_images/ambient_occlusion_image_texture.png",
            "mimeType": "image/png"
        },
        {
            "name": "sheen_color_image_texture",
            "uri": "chair_1_images/sheen_color_image_texture.jpg",
            "mimeType": "image/jpeg"
        },
        {
            "name": "normal_image_texture",
            "uri": "chair_1_images/normal_image_texture.png",
            "mimeType": "image/png"
        }
    ],
    "materials": [
        {
            "pbrMetallicRoughness": {
                "baseColorFactor": [
                    0.008568113669753075,
                    0.008568113669753075,
                    0.008568113669753075,
                    1.0
                ],
                "metallicFactor": 0.0,
                "roughnessFactor": 0.2800000011920929
            },
            "name": "hard_plastic_material5",
            "doubleSided": true
        },
        {
            "pbrMetallicRoughness": {
                "baseColorTexture": {
                    "index": 0
                },
                "metallicFactor": 0.14901961386203767,
                "roughnessFactor": 0.21960784494876862
            },
            "normalTexture": {
                "index": 3
            },
            "occlusionTexture": {
                "index": 1
            },
            "name": "Orange Nylon Webbing_material",
            "doubleSided": true,
            "extensions": {
                "KHR_materials_sheen": {
                    "sheenColorFactor": [
                        1,
                        1,
                        1
                    ],
                    "sheenColorTexture": {
                        "index": 2
                    },
                    "sheenRoughnessFactor": 0.30000001192092898
                }
            }
        }
    ],
    "meshes": [
        {
            "name": "leg_001_mesh_n3d",
            "primitives": [
                {
                    "attributes": {
                        "TEXCOORD_0": 3,
                        "TANGENT": 2,
                        "NORMAL": 1,
                        "POSITION": 0
                    },
                    "indices": 4,
                    "material": 0
                }
            ]
        },
        {
            "name": "leg_002_mesh_n3d",
            "primitives": [
                {
                    "attributes": {
                        "POSITION": 5,
                        "NORMAL": 6,
                        "TANGENT": 7,
                        "TEXCOORD_0": 8
                    },
                    "indices": 9,
                    "material": 0
                }
            ]
        },
        {
            "name": "leg_003_mesh_n3d",
            "primitives": [
                {
                    "attributes": {
                        "TEXCOORD_0": 13,
                        "TANGENT": 12,
                        "NORMAL": 11,
                        "POSITION": 10
                    },
                    "indices": 14,
                    "material": 0
                }
            ]
        },
        {
            "name": "leg_004_mesh_n3d",
            "primitives": [
                {
                    "attributes": {
                        "TEXCOORD_0": 18,
                        "TANGENT": 17,
                        "NORMAL": 16,
                        "POSITION": 15
                    },
                    "indices": 19,
                    "material": 0
                }
            ]
        },
        {
            "name": "seat_mesh_n3d",
            "primitives": [
                {
                    "attributes": {
                        "POSITION": 20,
                        "NORMAL": 21,
                        "TANGENT": 22,
                        "TEXCOORD_0": 23
                    },
                    "indices": 24,
                    "material": 1
                }
            ]
        }
    ],
    "nodes": [
        {
            "translation": [
                0.550000011920929,
                0.3199999928474426,
                0.550000011920929
            ],
            "rotation": [
                -0.12059047073125839,
                0.379409521818161,
                0.04995020851492882,
                0.9159756302833557
            ],
            "scale": [
                1.0,
                1.0,
                0.9999999403953552
            ],
            "camera": 0,
            "name": "working_cam_n3d"
        },
        {
            "children": [
                2,
                3,
                4,
                5,
                6
            ],
            "translation": [
                0.006690749898552895,
                0.002520365174859762,
                0.012627973221242428
            ],
            "rotation": [
                -0.004351705778390169,
                -0.028782229870557786,
                0.014833644963800908,
                0.9994661808013916
            ],
            "scale": [
                0.20860391855239869,
                0.20860400795936585,
                0.20860421657562257
            ],
            "name": "armchair_four_legged_n3d"
        },
        {
            "mesh": 0,
            "name": "leg_001_mesh_n3d"
        },
        {
            "mesh": 1,
            "name": "leg_002_mesh_n3d"
        },
        {
            "mesh": 2,
            "name": "leg_003_mesh_n3d"
        },
        {
            "mesh": 3,
            "name": "leg_004_mesh_n3d"
        },
        {
            "mesh": 4,
            "name": "seat_mesh_n3d"
        }
    ],
    "samplers": [
        {}
    ],
    "scenes": [
        {
            "nodes": [
                0,
                1
            ],
            "name": "scene"
        }
    ],
    "textures": [
        {
            "name": "base_color_image_texture",
            "sampler": 0,
            "source": 0
        },
        {
            "name": "ambient_occlusion_image_texture",
            "sampler": 0,
            "source": 1
        },
        {
            "name": "sheen_color_image_texture",
            "sampler": 0,
            "source": 2
        },
        {
            "name": "normal_image_texture",
            "sampler": 0,
            "source": 3
        }
    ],
    "scene": 0,
    "extensionsUsed": [
        "KHR_materials_sheen"
    ]
}